PathFileType	4	(X/Y/Z)	C:/Users/beibeiliu/ov580/test_trc/capture2\sequence.35_training_dense_right.trc
DataRate	CameraRate	NumFrames	NumMarkers	Units	OrigDataRate	OrigDataStartFrame	OrigNumFrames
120	120	14	19	mm	120	205	272
Frame#	Time	ThumbCMC			ThumbMCP			ThumbIP			ThumbTip			IndexMCP			IndexPIP			IndexTip			MiddleMCP			MiddlePIP			MiddleTip			RingMCP			RingPIP			RingTip			PinkyMCP			PinkyPIP			PinkyTip			BackHand1			BackHand2			BackHand3	
		X0	Y0	Z0	X1	Y1	Z1	X2	Y2	Z2	X3	Y3	Z3	X4	Y4	Z4	X5	Y5	Z5	X6	Y6	Z6	X7	Y7	Z7	X8	Y8	Z8	X9	Y9	Z9	X10	Y10	Z10	X11	Y11	Z11	X12	Y12	Z12	X13	Y13	Z13	X14	Y14	Z14	X15	Y15	Z15	X16	Y16	Z16	X17	Y17	Z17	X18	Y18	Z18	
204	1.7	315.245	9.52327	59.1396	332.94	17.03	35.66	353.89	16.6898	17.2005	362.751	7.50195	-2.65747	363.12	-32.5282	10.6757	364.318	-17.9539	-16.2594	337.042	3.95585	-9.38365	351.077	-44.4161	-1.88365	344.25	-26.9298	-26.0487	323.885	-3.6033	-4.94263	337.624	-52.11	-8.41728	326.571	-30.3087	-28.7673	313.915	-11.2761	-4.4384	316.929	-59.7802	-5.0473	314.285	-39.909	-28.0593	305.899	-16.4819	-10.6957	307.443	-52.5735	43.3467	287.763	-45.7219	63.6449	319.535	-27.1747	65.0463	
205	1.70833	307.861	14.141	40.1034	323.535	26.229	18.6071	339.328	22.3294	-3.90316	345.463	9.91917	-25.7228	346.562	-26.636	-13.5038	343.318	-12.2731	-39.9128	322.256	7.95598	-33.745	331.623	-39.0267	-20.8158	324.577	-21.9593	-46.3253	303.769	0.634498	-20.3783	316.593	-49.3395	-29.0807	309.972	-27.1119	-47.2491	298.09	-6.3702	-24.0419	297.888	-52.6039	-20.3141	295.929	-34.8414	-45.3843	288.637	-8.48034	-26.1621	295.363	-50.6823	26.3932	279.938	-37.4274	51.9305	310.807	-24.071	46.3453	
206	1.71667	299.741	18.9033	21.0943	310.528	29.461	-5.90611	323.985	27.7152	-30.894	326.076	17.2129	-51.827	326.806	-22.4563	-36.9498	321.403	-8.31471	-62.0568	299.858	14.9436	-49.8654	311.962	-33.3017	-42.1469	299.803	-15.187	-67.4651	285.567	8.45396	-39.9046	294.091	-42.7407	-44.4328	283.274	-18.0908	-64.8321	275.002	0.158289	-36.6785	276.69	-46.4791	-38.6387	274.348	-25.4552	-61.4368	268.057	-1.48996	-44.0812	284.613	-41.1921	9.8667	268.98	-33.2034	33.0439	299.355	-18.3132	25.2365	
207	1.725	285.443	26.8191	3.47155	290.844	34.3812	-26.7891	302.01	35.8122	-53.4439	299.725	26.5657	-74.8988	306.158	-14.5698	-59.8102	293.14	-2.03838	-84.0012	278.074	20.5533	-67.9931	287.967	-23.8632	-68.1071	273.026	-6.04069	-85.4061	263.651	18.023	-55.3564	269.801	-33.8324	-61.5999	256.412	-8.59749	-79.5438	252.543	8.3732	-54.4856	253.049	-37.4095	-53.046	242.765	-16.9208	-75.8523	244.537	8.21065	-58.8843	268.607	-35.1426	-6.26858	256.106	-26.4879	22.8294	287.533	-11.6073	9.55378	
208	1.73333	269.912	34.8532	-15.0406	268.334	46.3014	-43.0222	271.681	43.415	-72.2741	267.269	32.9575	-96.4347	281.747	-4.85705	-77.5989	267.946	6.12107	-102.29	252.139	32.041	-78.8147	262.725	-13.9364	-84.7557	242.111	3.12861	-99.9631	235.108	25.3932	-70.2715	246.607	-23.319	-77.5525	231.397	-3.45531	-92.999	227.972	17.1336	-64.6835	229.223	-28.6058	-70.0799	214.498	-11.1147	-85.5112	217.433	17.1628	-70.0349	252.522	-25.1665	-22.1956	248.222	-19.4713	5.75728	273.459	-5.07744	-12.942	
209	1.74167	250.556	45.9145	-27.4162	240.283	54.2362	-56.8983	237.462	53.9505	-82.253	228.21	42.5419	-106.429	254.547	6.36883	-90.1588	234.502	15.3353	-113.375	220.822	37.5608	-94.5195	234.118	-5.7494	-93.5101	211.081	11.8149	-108.87	210.021	35.6273	-80.4869	219.882	-13.6494	-88.6616	197.575	10.3528	-96.3945	203.601	25.225	-66.2036	205.673	-19.9167	-76.8972	189.642	1.75256	-90.9043	190.445	26.1497	-73.3133	232.84	-20.1511	-35.6957	232.674	-12.2999	-5.21904	254.853	3.91034	-26.7518	
210	1.75	228.058	49.7954	-33.7775	213.039	59.147	-63.042	204.98	60.1747	-88.7716	194.541	52.6035	-105.266	226.831	16.0351	-102.627	205.114	21.4447	-121.157	190.062	50.0339	-103.111	205.779	3.22784	-104.939	184.914	23.1148	-115.44	180.041	42.8828	-86.7672	194.701	-5.51766	-92.4467	173.23	17.7378	-100.172	179.492	34.7143	-73.1321	183.49	-13.9963	-76.8359	164.723	6.2312	-91.2671	168.181	30.4255	-72.2254	218.818	-8.63362	-43.4673	223.838	-4.99841	-11.9607	240.815	14.2999	-36.2784	
211	1.75833	213.454	60.6757	-40.859	196.216	72.1141	-64.0023	185.766	70.4527	-91.8765	170.89	54.6631	-109.261	202.351	25.8323	-109.056	179.704	32.0203	-126.175	158.074	56.6714	-113.104	188.21	12.5141	-106.255	161.762	26.7987	-116.607	156.18	50.6288	-89.3932	173.18	4.80673	-98.334	148.103	23.1907	-99.1087	157.218	39.3137	-70.9917	163.709	-6.79115	-81.3572	145.517	10.141	-91.377	149.922	36.4254	-67.7766	203.902	-2.30126	-51.2045	208.263	1.30717	-17.8602	224.752	20.273	-45.2123	
212	1.76667	199.784	66.4337	-44.6278	179.857	73.4009	-63.9878	169.294	76.5013	-92.3623	153.783	58.5756	-109.461	186.549	32.9394	-110.421	163.909	37.7679	-126.22	137.978	60.1753	-117.507	169.54	17.1976	-109.829	146.386	32.7388	-118.345	138.353	55.3116	-90.0575	154.728	6.73687	-98.7985	134.129	29.8025	-100.14	142.617	45.8864	-72.2996	148.195	-1.21597	-82.9781	128.831	19.4679	-89.2797	137.713	40.0277	-65.6391	191.59	2.85749	-51.6566	198.355	9.14761	-24.3903	212.483	29.0279	-47.9761	
213	1.775	188.499	70.2199	-41.975	168.786	80.0155	-68.2107	155.683	79.4774	-92.2809	140.765	61.3743	-108.709	176.935	38.9074	-107.257	152.376	42.372	-126.315	125.447	63.83	-117.604	161.687	22.2197	-106.628	132.938	36.6905	-117.224	128.466	58.7193	-84.1849	148.232	13.8856	-99.8475	123.94	30.4183	-101.027	133.656	51.6788	-73.4553	140.057	3.52573	-81.0959	117.581	22.4659	-86.7962	128.138	43.8892	-68.6275	182.053	6.98775	-48.8461	189.165	12.0906	-20.2468	203.81	35.2663	-44.6597	
214	1.78333	180.582	75.5383	-39.6203	160.046	83.2584	-61.3144	146.38	85.4854	-90.3148	131.518	72.0492	-105.425	168.099	41.7305	-107.563	143.098	43.7723	-124.039	118.556	64.7939	-116.125	153.611	27.5576	-107.471	124.72	37.0254	-115.14	120.981	63.372	-86.5841	140.857	16.6682	-99.147	114.867	34.919	-100.539	120.519	53.2165	-73.7023	130.454	4.85239	-80.6485	111.212	27.55	-86.8707	121.517	47.5558	-66.2285	171.831	8.0931	-51.7247	180.742	11.7266	-22.0174	192.779	36.766	-43.4912	
215	1.79167	173.441	75.8278	-39.5251	153.017	85.7846	-63.1839	140.187	87.8195	-85.3034	124.568	75.5386	-103.827	160.286	40.8093	-106.267	136.156	46.3275	-124.712	112.818	65.1342	-113.927	146.413	30.3196	-108.255	118.955	40.7664	-114.896	113.684	63.4176	-82.8006	132.027	15.9512	-95.6776	109.407	38.4833	-99.5335	113.963	55.5605	-75.05	125.127	7.91584	-81.1312	102.31	26.3552	-84.9048	110.87	49.4054	-65.0666	166.726	12.1981	-48.6399	174.621	15.9502	-20.566	188.734	39.8391	-45.6607	
216	1.8	168.926	77.8451	-38.3283	147.305	86.3919	-59.4987	132.795	86.4344	-84.7131	118.091	75.3851	-102.899	157.309	42.8279	-104.536	132.43	46.0716	-122.54	106.944	64.4665	-111.336	143.278	30.4639	-103.381	111.683	43.9969	-110.73	110.126	66.8691	-84.7697	127.882	18.8153	-96.8932	103.687	35.7403	-98.3976	111.394	56.7972	-70.6354	119.293	8.94534	-78.8473	100.566	30.5479	-84.7137	108.915	49.2648	-58.7882	161.486	12.2415	-50.4059	167.461	13.5047	-20.9162	180.437	38.6634	-40.0557	
217	1.80833	163.936	75.5285	-35.5469	144.164	88.9001	-57.9357	128.551	88.89	-84.9615	113.733	76.0038	-97.3704	154.167	43.1909	-104.634	127.964	48.0442	-122.771	102.589	66.042	-109.82	134.385	28.2714	-104.429	107.015	42.5935	-109.434	105.169	64.8172	-78.1799	122.55	18.2353	-95.4521	97.253	36.2607	-94.3854	105.548	56.3546	-69.045	114.442	7.43242	-77.4306	94.1314	27.7032	-82.4579	103.11	49.8791	-62.0347	154.322	11.1749	-45.6919	162.895	12.4256	-20.3849	175.829	37.6292	-41.2784	
